<svg xmlns="http://www.w3.org/2000/svg" xmlns:xlink="http://www.w3.org/1999/xlink" version="1.1" width="256" height="256" viewBox="0 0 256 256" xml:space="preserve">
<desc>Created with Fabric.js 1.7.22</desc>
<defs>
</defs>
<g transform="translate(128 128) scale(0.72 0.72)" style="">
	<g style="stroke: none; stroke-width: 0; stroke-dasharray: none; stroke-linecap: butt; stroke-linejoin: miter; stroke-miterlimit: 10; fill: none; fill-rule: nonzero; opacity: 1;" transform="translate(-175.05 -175.05000000000004) scale(3.89 3.89)" >
	<path d="M 88.5 52.136 c 0 -6.477 -4.64 -12.064 -10.923 -13.323 c -0.414 -8.474 -7.439 -15.24 -16.013 -15.24 h -0.076 c -4.492 -8.833 -13.7 -14.507 -23.633 -14.507 c -14.61 0 -26.497 11.887 -26.497 26.497 c 0 1.133 0.076 2.285 0.226 3.436 C 5.688 40.573 1.5 45.956 1.5 52.136 c 0 7.5 6.102 13.602 13.602 13.602 h 61.073 v -0.065 C 83.078 65.027 88.5 59.205 88.5 52.136 z" style="stroke: none; stroke-width: 1; stroke-dasharray: none; stroke-linecap: butt; stroke-linejoin: miter; stroke-miterlimit: 10; fill: rgb(179,218,254); fill-rule: nonzero; opacity: 1;" transform=" matrix(1 0 0 1 0 0) " stroke-linecap="round" />
	<path d="M 24.06 46.497 h -6.32 V 79.35 h 21.296 c 1.292 0.38 2.211 1.818 3.636 1.818 C 43.572 81.18 44.31 80.475 45 79.22 c 0.344 0.827 1.21 1.948 2.086 1.948 c 1.023 0 2.215 -0.438 2.857 -1.558 h 22.335 V 46.497 H 24.06 z" style="stroke: none; stroke-width: 1; stroke-dasharray: none; stroke-linecap: butt; stroke-linejoin: miter; stroke-miterlimit: 10; fill: rgb(249,208,112); fill-rule: nonzero; opacity: 1;" transform=" matrix(1 0 0 1 0 0) " stroke-linecap="round" />
	<path d="M 39.125 72.852 H 24.06 V 43.426 h 15.065 c 3.779 0 4.606 1.552 4.875 2.257 v 25.563 c 0 0.553 0.448 1 1 1 s 1 -0.447 1 -1 V 45.682 c 0.271 -0.706 1.102 -2.255 4.875 -2.255 H 65.94 v 29.425 H 50.875 c -3.2 0 -4.763 1.11 -5.874 2.448 C 43.906 73.976 42.344 72.852 39.125 72.852 z" style="stroke: none; stroke-width: 1; stroke-dasharray: none; stroke-linecap: butt; stroke-linejoin: miter; stroke-miterlimit: 10; fill: rgb(238,240,245); fill-rule: nonzero; opacity: 1;" transform=" matrix(1 0 0 1 0 0) " stroke-linecap="round" />
	<path d="M 72.235 45.581 c -0.553 0 -1 0.447 -1 1 v 32.181 l -20.081 -0.064 c -1.18 0.048 -2.181 0.357 -2.968 0.915 c -0.592 0.409 -1.075 0.397 -1.522 -0.042 c -0.607 -0.599 -0.916 -1.885 -0.429 -2.61 c 0.959 -1.302 2.069 -2.108 4.64 -2.108 H 66.94 c 0.553 0 1 -0.447 1 -1 V 42.426 c 0 -0.552 -0.447 -1 -1 -1 H 50.875 c -3.115 0 -4.879 0.957 -5.875 2.109 c -0.996 -1.152 -2.76 -2.109 -5.875 -2.109 H 23.06 c -0.552 0 -1 0.448 -1 1 v 31.425 c 0 0.553 0.448 1 1 1 h 16.065 c 2.569 0 3.68 0.807 4.615 2.074 c 0.512 0.76 0.203 2.046 -0.404 2.645 c -0.446 0.439 -0.93 0.454 -1.515 0.047 c -0.795 -0.563 -1.796 -0.872 -3.02 -0.921 l -20.037 0.065 V 46.581 c 0 -0.553 -0.448 -1 -1 -1 s -1 0.447 -1 1 v 33.184 c 0 0.266 0.106 0.521 0.294 0.708 c 0.188 0.188 0.441 0.292 0.706 0.292 c 0.001 0 0.002 0 0.003 0 l 20.996 -0.069 c 0.787 0.032 1.427 0.219 1.909 0.56 c 0.628 0.437 1.295 0.652 1.941 0.652 c 0.77 0 1.511 -0.307 2.126 -0.913 c 0.093 -0.092 0.175 -0.201 0.26 -0.306 c 0.085 0.104 0.167 0.214 0.26 0.306 c 0.614 0.606 1.354 0.912 2.124 0.912 c 0.648 0 1.317 -0.218 1.951 -0.656 c 0.474 -0.336 1.113 -0.522 1.857 -0.554 l 21.04 0.068 c 0.001 0 0.002 0 0.003 0 c 0.265 0 0.519 -0.104 0.706 -0.292 c 0.188 -0.188 0.294 -0.442 0.294 -0.708 V 46.581 C 73.235 46.028 72.788 45.581 72.235 45.581 z M 39.125 72.852 H 24.06 V 43.426 h 15.065 c 3.779 0 4.606 1.552 4.875 2.257 v 25.563 c 0 0.553 0.448 1 1 1 s 1 -0.447 1 -1 V 45.682 c 0.271 -0.706 1.102 -2.255 4.875 -2.255 H 65.94 v 29.425 H 50.875 c -3.2 0 -4.763 1.11 -5.874 2.448 C 43.906 73.976 42.344 72.852 39.125 72.852 z" style="stroke: none; stroke-width: 1; stroke-dasharray: none; stroke-linecap: butt; stroke-linejoin: miter; stroke-miterlimit: 10; fill: rgb(0,0,0); fill-rule: nonzero; opacity: 1;" transform=" matrix(1 0 0 1 0 0) " stroke-linecap="round" />
	<path d="M 78.7 38.862 c -0.429 -8.766 -7.695 -15.765 -16.565 -15.765 h -0.079 C 57.409 13.959 47.883 8.09 37.607 8.09 c -15.114 0 -27.411 12.296 -27.411 27.411 c 0 1.172 0.079 2.364 0.234 3.554 C 4.333 40.682 0 46.251 0 52.645 c 0 7.759 6.313 14.071 14.071 14.071 c 0.552 0 1 -0.447 1 -1 s -0.448 -1 -1 -1 C 7.415 64.716 2 59.301 2 52.645 c 0 -5.76 4.099 -10.74 9.746 -11.842 c 0.531 -0.104 0.883 -0.61 0.795 -1.144 c -0.229 -1.39 -0.345 -2.79 -0.345 -4.159 c 0 -14.012 11.399 -25.411 25.411 -25.411 c 9.722 0 18.72 5.668 22.926 14.439 c 0.166 0.347 0.517 0.568 0.901 0.568 h 0.7 c 8.043 0 14.586 6.543 14.585 14.613 c 0 0.5 0.369 0.923 0.864 0.991 C 83.521 41.517 88 46.651 88 52.645 c 0 6.656 -5.415 12.071 -12.071 12.071 c -0.553 0 -1 0.447 -1 1 s 0.447 1 1 1 C 83.688 66.716 90 60.403 90 52.645 C 90 45.944 85.2 40.165 78.7 38.862 z" style="stroke: none; stroke-width: 1; stroke-dasharray: none; stroke-linecap: butt; stroke-linejoin: miter; stroke-miterlimit: 10; fill: rgb(0,0,0); fill-rule: nonzero; opacity: 1;" transform=" matrix(1 0 0 1 0 0) " stroke-linecap="round" />
	<path d="M 18.232 35.5 c 0 -10.512 8.553 -19.065 19.065 -19.065 c 7.293 0 14.045 4.252 17.201 10.833 c 0.238 0.498 0.833 0.709 1.334 0.47 c 0.498 -0.239 0.708 -0.836 0.469 -1.334 c -3.485 -7.271 -10.945 -11.969 -19.003 -11.969 c -11.616 0 -21.065 9.45 -21.065 21.065 c 0 0.552 0.448 1 1 1 S 18.232 36.053 18.232 35.5 z" style="stroke: none; stroke-width: 1; stroke-dasharray: none; stroke-linecap: butt; stroke-linejoin: miter; stroke-miterlimit: 10; fill: rgb(0,0,0); fill-rule: nonzero; opacity: 1;" transform=" matrix(1 0 0 1 0 0) " stroke-linecap="round" />
</g>
</g>
</svg>