<svg xmlns="http://www.w3.org/2000/svg" xmlns:xlink="http://www.w3.org/1999/xlink" version="1.1" width="256" height="256" viewBox="0 0 256 256" xml:space="preserve">
<desc>Created with Fabric.js 1.7.22</desc>
<defs>
</defs>
<g transform="translate(128 128) scale(0.72 0.72)" style="">
	<g style="stroke: none; stroke-width: 0; stroke-dasharray: none; stroke-linecap: butt; stroke-linejoin: miter; stroke-miterlimit: 10; fill: none; fill-rule: nonzero; opacity: 1;" transform="translate(-175.05 -175.05000000000004) scale(3.89 3.89)" >
	<path d="M 65.625 62.613 V 26.4 v -5.775 C 65.625 9.234 56.391 0 45 0 h 0 C 33.609 0 24.375 9.234 24.375 20.625 V 26.4 v 36.213 H 65.625 z" style="stroke: none; stroke-width: 1; stroke-dasharray: none; stroke-linecap: butt; stroke-linejoin: miter; stroke-miterlimit: 10; fill: rgb(243,170,0); fill-rule: nonzero; opacity: 1;" transform=" matrix(1 0 0 1 0 0) " stroke-linecap="round" />
	<path d="M 63.015 90 l 9.827 -6.257 c 1.333 -0.848 2.139 -2.319 2.139 -3.898 V 69.516 L 59.527 58.114 c -3.133 -0.573 -5.409 -3.302 -5.409 -6.487 v -1.72 H 35.882 v 1.72 c 0 3.185 -2.276 5.914 -5.409 6.487 L 15.018 69.516 v 9.679 c 0 1.669 0.826 3.23 2.207 4.169 L 26.985 90 H 63.015 z" style="stroke: none; stroke-width: 1; stroke-dasharray: none; stroke-linecap: butt; stroke-linejoin: miter; stroke-miterlimit: 10; fill: rgb(242,194,178); fill-rule: nonzero; opacity: 1;" transform=" matrix(1 0 0 1 0 0) " stroke-linecap="round" />
	<polyline points="26.98,90 45,85.44 63.02,90 " style="stroke: none; stroke-width: 1; stroke-dasharray: none; stroke-linecap: butt; stroke-linejoin: miter; stroke-miterlimit: 10; fill: rgb(242,194,178); fill-rule: nonzero; opacity: 1;" transform="  matrix(1 0 0 1 0 0) "/>
	<path d="M 29.008 39.618 l -5.45 0 c -1.175 0 -2.127 -0.952 -2.127 -2.127 v -8.964 c 0 -1.175 0.952 -2.127 2.127 -2.127 h 3.914 C 30.845 30.631 31.137 35.05 29.008 39.618 z" style="stroke: none; stroke-width: 1; stroke-dasharray: none; stroke-linecap: butt; stroke-linejoin: miter; stroke-miterlimit: 10; fill: rgb(38,111,183); fill-rule: nonzero; opacity: 1;" transform=" matrix(1 0 0 1 0 0) " stroke-linecap="round" />
	<path d="M 62.528 26.4 h 3.914 c 1.174 0 2.127 0.952 2.127 2.127 v 8.964 c 0 1.175 -0.952 2.127 -2.127 2.127 l -5.453 0 C 58.183 34.943 59.346 30.59 62.528 26.4 z" style="stroke: none; stroke-width: 1; stroke-dasharray: none; stroke-linecap: butt; stroke-linejoin: miter; stroke-miterlimit: 10; fill: rgb(38,111,183); fill-rule: nonzero; opacity: 1;" transform=" matrix(1 0 0 1 0 0) " stroke-linecap="round" />
	<path d="M 62.636 25.103 l -0.866 10.348 c -0.204 2.443 -0.828 4.783 -1.808 6.938 c -0.53 1.165 -1.164 2.276 -1.892 3.32 c -0.728 1.044 -1.55 2.021 -2.457 2.918 c -2.124 2.102 -4.71 3.764 -7.63 4.819 l 0 0 c -1.928 0.697 -4.04 0.697 -5.968 0 l 0 0 c -7.717 -2.789 -13.103 -9.818 -13.787 -17.995 l -0.928 -11.097 c 11.286 -1.517 19.15 -3.945 23.666 -8.53 C 54.458 19.965 57.538 22.371 62.636 25.103 z" style="stroke: none; stroke-width: 1; stroke-dasharray: none; stroke-linecap: butt; stroke-linejoin: miter; stroke-miterlimit: 10; fill: rgb(250,206,191); fill-rule: nonzero; opacity: 1;" transform=" matrix(1 0 0 1 0 0) " stroke-linecap="round" />
	<path d="M 33.239 29.426 c 0.453 -0.679 1.087 -1.14 1.786 -1.476 c 0.703 -0.325 1.485 -0.496 2.269 -0.497 c 0.784 -0.002 1.567 0.169 2.269 0.494 c 0.699 0.335 1.333 0.798 1.785 1.479 c -0.812 0.076 -1.499 0.049 -2.161 0.048 l -1.893 -0.022 l -1.894 0.019 C 34.737 29.471 34.05 29.501 33.239 29.426 z" style="stroke: none; stroke-width: 1; stroke-dasharray: none; stroke-linecap: butt; stroke-linejoin: miter; stroke-miterlimit: 10; fill: rgb(220,102,65); fill-rule: nonzero; opacity: 1;" transform=" matrix(1 0 0 1 0 0) " stroke-linecap="round" />
	<path d="M 48.652 29.426 c 0.453 -0.679 1.087 -1.14 1.786 -1.476 c 0.703 -0.325 1.485 -0.496 2.269 -0.497 c 0.784 -0.002 1.567 0.169 2.269 0.494 c 0.699 0.335 1.333 0.798 1.785 1.479 c -0.812 0.076 -1.499 0.049 -2.161 0.048 l -1.893 -0.022 l -1.894 0.019 C 50.15 29.471 49.463 29.501 48.652 29.426 z" style="stroke: none; stroke-width: 1; stroke-dasharray: none; stroke-linecap: butt; stroke-linejoin: miter; stroke-miterlimit: 10; fill: rgb(220,102,65); fill-rule: nonzero; opacity: 1;" transform=" matrix(1 0 0 1 0 0) " stroke-linecap="round" />
	<path d="M 39 41.366 c 1.111 0.489 2.099 1 3.094 1.348 c 0.988 0.358 1.948 0.561 2.903 0.566 c 0.954 -0.01 1.915 -0.216 2.903 -0.574 c 0.995 -0.348 1.986 -0.856 3.1 -1.34 c -0.534 1.087 -1.346 2.01 -2.366 2.731 c -1.018 0.711 -2.302 1.179 -3.634 1.182 c -1.332 -0.002 -2.618 -0.468 -3.637 -1.179 C 40.343 43.378 39.532 42.454 39 41.366 z" style="stroke: none; stroke-width: 1; stroke-dasharray: none; stroke-linecap: butt; stroke-linejoin: miter; stroke-miterlimit: 10; fill: rgb(220,102,65); fill-rule: nonzero; opacity: 1;" transform=" matrix(1 0 0 1 0 0) " stroke-linecap="round" />
	<path d="M 55.833 48.364 h -6.53 c -0.553 0 -1 -0.447 -1 -1 s 0.447 -1 1 -1 h 6.53 c 3.721 0 6.747 -3.026 6.747 -6.747 c 0 -0.552 0.447 -1 1 -1 s 1 0.448 1 1 C 64.58 44.44 60.656 48.364 55.833 48.364 z" style="stroke: none; stroke-width: 1; stroke-dasharray: none; stroke-linecap: butt; stroke-linejoin: miter; stroke-miterlimit: 10; fill: rgb(38,111,183); fill-rule: nonzero; opacity: 1;" transform=" matrix(1 0 0 1 0 0) " stroke-linecap="round" />
	<path d="M 26.985 90 H 45 c 0 0 18.015 0 18.015 0 v -6.114 c 0 -2.284 0.969 -4.46 2.665 -5.989 l 9.301 -8.381 c 0 0 0 -1.094 0 -1.094 c 0 -4.334 -3.098 -8.049 -7.361 -8.829 c 0 0 -8.094 -1.479 -8.094 -1.479 C 56.517 66.946 51.571 73.657 45 78.589 c -6.571 -4.932 -11.517 -11.643 -14.527 -20.475 c 0 0 -8.094 1.479 -8.094 1.479 c -4.264 0.779 -7.361 4.494 -7.361 8.829 c 0 0 0 1.094 0 1.094 l 9.301 8.381 c 1.697 1.529 2.665 3.705 2.665 5.989 C 26.985 83.886 26.985 90 26.985 90 z" style="stroke: none; stroke-width: 1; stroke-dasharray: none; stroke-linecap: butt; stroke-linejoin: miter; stroke-miterlimit: 10; fill: rgb(38,111,183); fill-rule: nonzero; opacity: 1;" transform=" matrix(1 0 0 1 0 0) " stroke-linecap="round" />
	<path d="M 66.455 90 H 23.545 V 67.586 c 0 -2.278 1.846 -4.124 4.124 -4.124 h 34.661 c 2.278 0 4.124 1.846 4.124 4.124 V 90 z" style="stroke: none; stroke-width: 1; stroke-dasharray: none; stroke-linecap: butt; stroke-linejoin: miter; stroke-miterlimit: 10; fill: rgb(249,249,249); fill-rule: nonzero; opacity: 1;" transform=" matrix(1 0 0 1 0 0) " stroke-linecap="round" />
	<path d="M 84.24 90 H 5.76 c -0.552 0 -1 -0.447 -1 -1 s 0.448 -1 1 -1 h 78.48 c 0.553 0 1 0.447 1 1 S 84.793 90 84.24 90 z" style="stroke: none; stroke-width: 1; stroke-dasharray: none; stroke-linecap: butt; stroke-linejoin: miter; stroke-miterlimit: 10; fill: rgb(204,204,204); fill-rule: nonzero; opacity: 1;" transform=" matrix(1 0 0 1 0 0) " stroke-linecap="round" />
	<circle cx="45.4" cy="75.58999999999999" r="3.6" style="stroke: none; stroke-width: 1; stroke-dasharray: none; stroke-linecap: butt; stroke-linejoin: miter; stroke-miterlimit: 10; fill: rgb(204,204,204); fill-rule: nonzero; opacity: 1;" transform="  matrix(1 0 0 1 0 0) "/>
</g>
</g>
</svg>