<svg xmlns="http://www.w3.org/2000/svg" xmlns:xlink="http://www.w3.org/1999/xlink" version="1.1" width="256" height="256" viewBox="0 0 256 256" xml:space="preserve">
<desc>Created with Fabric.js 1.7.22</desc>
<defs>
</defs>
<g transform="translate(128 128) scale(0.72 0.72)" style="">
	<g style="stroke: none; stroke-width: 0; stroke-dasharray: none; stroke-linecap: butt; stroke-linejoin: miter; stroke-miterlimit: 10; fill: none; fill-rule: nonzero; opacity: 1;" transform="translate(-175.05 -175.05000000000004) scale(3.89 3.89)" >
	<path d="M 65.517 64.002 H 39.205 c -0.829 0 -1.5 -0.672 -1.5 -1.5 s 0.671 -1.5 1.5 -1.5 h 24.812 V 24.647 c 0 -1.268 -1.031 -2.3 -2.3 -2.3 H 14.167 c -0.829 0 -1.5 -0.671 -1.5 -1.5 s 0.671 -1.5 1.5 -1.5 h 47.549 c 2.922 0 5.3 2.377 5.3 5.3 v 37.855 C 67.017 63.33 66.345 64.002 65.517 64.002 z" style="stroke: none; stroke-width: 1; stroke-dasharray: none; stroke-linecap: butt; stroke-linejoin: miter; stroke-miterlimit: 10; fill: rgb(38,50,102); fill-rule: nonzero; opacity: 1;" transform=" matrix(1 0 0 1 0 0) " stroke-linecap="round" />
	<path d="M 25.904 64.002 H 14.167 c -0.829 0 -1.5 -0.672 -1.5 -1.5 s 0.671 -1.5 1.5 -1.5 h 11.736 c 0.829 0 1.5 0.672 1.5 1.5 S 26.732 64.002 25.904 64.002 z" style="stroke: none; stroke-width: 1; stroke-dasharray: none; stroke-linecap: butt; stroke-linejoin: miter; stroke-miterlimit: 10; fill: rgb(38,50,102); fill-rule: nonzero; opacity: 1;" transform=" matrix(1 0 0 1 0 0) " stroke-linecap="round" />
	<path d="M 84.264 64.002 h -1.195 c -0.828 0 -1.5 -0.672 -1.5 -1.5 s 0.672 -1.5 1.5 -1.5 h 1.195 c 1.509 0 2.736 -1.228 2.736 -2.736 V 39.323 c 0 -2.399 -1.077 -4.631 -2.954 -6.125 l -5.423 -4.313 c -1.379 -1.097 -3.109 -1.701 -4.871 -1.701 h -6.735 v 33.818 h 2.75 c 0.828 0 1.5 0.672 1.5 1.5 s -0.672 1.5 -1.5 1.5 h -4.25 c -0.828 0 -1.5 -0.672 -1.5 -1.5 V 25.684 c 0 -0.829 0.672 -1.5 1.5 -1.5 h 8.235 c 2.438 0 4.83 0.835 6.738 2.353 l 5.423 4.313 C 88.511 32.916 90 36.004 90 39.323 v 18.943 C 90 61.429 87.427 64.002 84.264 64.002 z" style="stroke: none; stroke-width: 1; stroke-dasharray: none; stroke-linecap: butt; stroke-linejoin: miter; stroke-miterlimit: 10; fill: rgb(38,50,102); fill-rule: nonzero; opacity: 1;" transform=" matrix(1 0 0 1 0 0) " stroke-linecap="round" />
	<path d="M 88.5 45.822 H 75.43 c -2.18 0 -3.953 -1.773 -3.953 -3.953 V 25.684 c 0 -0.829 0.672 -1.5 1.5 -1.5 s 1.5 0.671 1.5 1.5 v 16.185 c 0 0.525 0.428 0.953 0.953 0.953 H 88.5 c 0.828 0 1.5 0.671 1.5 1.5 S 89.328 45.822 88.5 45.822 z" style="stroke: none; stroke-width: 1; stroke-dasharray: none; stroke-linecap: butt; stroke-linejoin: miter; stroke-miterlimit: 10; fill: rgb(38,50,102); fill-rule: nonzero; opacity: 1;" transform=" matrix(1 0 0 1 0 0) " stroke-linecap="round" />
	<path d="M 32.555 70.653 c -4.495 0 -8.151 -3.656 -8.151 -8.15 s 3.656 -8.15 8.151 -8.15 c 4.494 0 8.15 3.656 8.15 8.15 S 37.049 70.653 32.555 70.653 z M 32.555 57.352 c -2.84 0 -5.151 2.311 -5.151 5.15 s 2.311 5.15 5.151 5.15 c 2.84 0 5.15 -2.311 5.15 -5.15 S 35.395 57.352 32.555 57.352 z" style="stroke: none; stroke-width: 1; stroke-dasharray: none; stroke-linecap: butt; stroke-linejoin: miter; stroke-miterlimit: 10; fill: rgb(38,50,102); fill-rule: nonzero; opacity: 1;" transform=" matrix(1 0 0 1 0 0) " stroke-linecap="round" />
	<path d="M 76.417 70.653 c -4.494 0 -8.15 -3.656 -8.15 -8.15 s 3.656 -8.15 8.15 -8.15 c 4.495 0 8.151 3.656 8.151 8.15 S 80.912 70.653 76.417 70.653 z M 76.417 57.352 c -2.84 0 -5.15 2.311 -5.15 5.15 s 2.311 5.15 5.15 5.15 c 2.841 0 5.151 -2.311 5.151 -5.15 S 79.258 57.352 76.417 57.352 z" style="stroke: none; stroke-width: 1; stroke-dasharray: none; stroke-linecap: butt; stroke-linejoin: miter; stroke-miterlimit: 10; fill: rgb(38,50,102); fill-rule: nonzero; opacity: 1;" transform=" matrix(1 0 0 1 0 0) " stroke-linecap="round" />
	<path d="M 88.5 51.445 h -8.924 c -0.828 0 -1.5 -0.672 -1.5 -1.5 s 0.672 -1.5 1.5 -1.5 H 88.5 c 0.828 0 1.5 0.672 1.5 1.5 S 89.328 51.445 88.5 51.445 z" style="stroke: none; stroke-width: 1; stroke-dasharray: none; stroke-linecap: butt; stroke-linejoin: miter; stroke-miterlimit: 10; fill: rgb(38,50,102); fill-rule: nonzero; opacity: 1;" transform=" matrix(1 0 0 1 0 0) " stroke-linecap="round" />
	<circle cx="32.646" cy="62.506" r="1.706" style="stroke: none; stroke-width: 1; stroke-dasharray: none; stroke-linecap: butt; stroke-linejoin: miter; stroke-miterlimit: 10; fill: rgb(38,50,102); fill-rule: nonzero; opacity: 1;" transform="  matrix(1 0 0 1 0 0) "/>
	<circle cx="76.416" cy="62.506" r="1.706" style="stroke: none; stroke-width: 1; stroke-dasharray: none; stroke-linecap: butt; stroke-linejoin: miter; stroke-miterlimit: 10; fill: rgb(38,50,102); fill-rule: nonzero; opacity: 1;" transform="  matrix(1 0 0 1 0 0) "/>
	<path d="M 84.264 64.002 h -1.195 c -0.828 0 -1.5 -0.672 -1.5 -1.5 s 0.672 -1.5 1.5 -1.5 h 1.195 c 1.509 0 2.736 -1.228 2.736 -2.736 V 39.323 c 0 -2.399 -1.077 -4.631 -2.954 -6.125 l -5.423 -4.313 c -1.379 -1.097 -3.109 -1.701 -4.871 -1.701 h -6.735 v 33.818 h 2.75 c 0.828 0 1.5 0.672 1.5 1.5 s -0.672 1.5 -1.5 1.5 h -4.25 c -0.828 0 -1.5 -0.672 -1.5 -1.5 V 25.684 c 0 -0.829 0.672 -1.5 1.5 -1.5 h 8.235 c 2.438 0 4.83 0.835 6.738 2.353 l 5.423 4.313 C 88.511 32.916 90 36.004 90 39.323 v 18.943 C 90 61.429 87.427 64.002 84.264 64.002 z" style="stroke: none; stroke-width: 1; stroke-dasharray: none; stroke-linecap: butt; stroke-linejoin: miter; stroke-miterlimit: 10; fill: rgb(38,50,102); fill-rule: nonzero; opacity: 1;" transform=" matrix(1 0 0 1 0 0) " stroke-linecap="round" />
	<path d="M 30.868 51.891 H 7.479 c -0.829 0 -1.5 -0.672 -1.5 -1.5 s 0.671 -1.5 1.5 -1.5 h 23.388 c 0.829 0 1.5 0.672 1.5 1.5 S 31.696 51.891 30.868 51.891 z" style="stroke: none; stroke-width: 1; stroke-dasharray: none; stroke-linecap: butt; stroke-linejoin: miter; stroke-miterlimit: 10; fill: rgb(38,50,102); fill-rule: nonzero; opacity: 1;" transform=" matrix(1 0 0 1 0 0) " stroke-linecap="round" />
	<path d="M 26.462 34.459 H 9.776 c -0.829 0 -1.5 -0.671 -1.5 -1.5 s 0.671 -1.5 1.5 -1.5 h 16.686 c 0.829 0 1.5 0.671 1.5 1.5 S 27.291 34.459 26.462 34.459 z" style="stroke: none; stroke-width: 1; stroke-dasharray: none; stroke-linecap: butt; stroke-linejoin: miter; stroke-miterlimit: 10; fill: rgb(38,50,102); fill-rule: nonzero; opacity: 1;" transform=" matrix(1 0 0 1 0 0) " stroke-linecap="round" />
	<path d="M 45.28 53.909 c -0.23 0 -0.459 -0.053 -0.671 -0.158 c -8.223 -4.111 -13.255 -10.431 -13.46 -16.903 c -0.11 -3.482 1.353 -6.45 3.915 -7.941 c 1.644 -0.956 5.1 -2.069 10.216 0.752 c 5.117 -2.821 8.573 -1.708 10.216 -0.752 c 2.562 1.491 4.025 4.459 3.915 7.941 c -0.206 6.473 -5.237 12.792 -13.46 16.903 C 45.739 53.857 45.51 53.909 45.28 53.909 z M 39.093 30.86 c -0.937 0 -1.786 0.212 -2.521 0.64 c -1.618 0.941 -2.502 2.856 -2.426 5.253 c 0.128 4.022 3.133 9.748 11.133 13.97 c 8 -4.223 11.005 -9.948 11.132 -13.97 c 0.076 -2.397 -0.808 -4.312 -2.426 -5.253 c -1.98 -1.153 -4.795 -0.738 -7.925 1.174 c -0.479 0.293 -1.084 0.293 -1.563 0 C 42.529 31.471 40.684 30.86 39.093 30.86 z" style="stroke: none; stroke-width: 1; stroke-dasharray: none; stroke-linecap: butt; stroke-linejoin: miter; stroke-miterlimit: 10; fill: rgb(186,47,83); fill-rule: nonzero; opacity: 1;" transform=" matrix(1 0 0 1 0 0) " stroke-linecap="round" />
	<path d="M 24.888 43.175 H 1.5 c -0.829 0 -1.5 -0.671 -1.5 -1.5 s 0.671 -1.5 1.5 -1.5 h 23.388 c 0.829 0 1.5 0.671 1.5 1.5 S 25.717 43.175 24.888 43.175 z" style="stroke: none; stroke-width: 1; stroke-dasharray: none; stroke-linecap: butt; stroke-linejoin: miter; stroke-miterlimit: 10; fill: rgb(38,50,102); fill-rule: nonzero; opacity: 1;" transform=" matrix(1 0 0 1 0 0) " stroke-linecap="round" />
</g>
</g>
</svg>